<?xml version="1.0" encoding="UTF-8"?>
<!DOCTYPE svg PUBLIC "-//W3C//DTD SVG 1.1//EN" "http://www.w3.org/Graphics/SVG/1.1/DTD/svg11.dtd">
<!-- Creator: CorelDRAW 2019 (64-Bit) -->
<svg xmlns="http://www.w3.org/2000/svg" xml:space="preserve" width="3.62787in" height="0.607181in" version="1.1" style="shape-rendering:geometricPrecision; text-rendering:geometricPrecision; image-rendering:optimizeQuality; fill-rule:evenodd; clip-rule:evenodd"
viewBox="0 0 3127.29 523.4"
 xmlns:xlink="http://www.w3.org/1999/xlink">
 <defs>
  <style type="text/css">
   <![CDATA[
    .str0 {stroke:#ED3237;stroke-width:5.98;stroke-miterlimit:2.61313}
    .fil1 {fill:#ED3237}
    .fil0 {fill:#4B4B4D;fill-rule:nonzero}
   ]]>
  </style>
 </defs>
 <g id="Layer_x0020_1">
  <metadata id="CorelCorpID_0Corel-Layer"/>
  <path class="fil0" d="M199.33 152.37l-100.57 -150.18 -83.33 0 0 3.45 135.62 195.67 -139.65 201.42 0 2.3 85.05 0 102.87 -151.33 102.87 151.33 85.05 0 0 -2.3 -140.22 -201.42 136.19 -195.67 0 -3.45 -83.33 0 -100.57 150.18 0.01 0 0.01 0zm486.17 252.66l0 -151.72c0,-37.36 23.56,-70.11 61.49,-70.11 37.93,0 53.44,31.61 53.44,68.96l0 152.86 70.11 0 0 -152.86c0,-85.05 -39.65,-134.48 -120.11,-134.48 -36.78,0 -69.54,11.49 -94.83,51.72 -16.1,-39.08 -49.99,-52.86 -83.9,-52.86 -27,0 -59.77,10.34 -74.71,39.08l-5.17 -34.48 -64.94 0 0 283.89 70.11 0 0 -151.72c0,-37.36 22.41,-71.26 60.34,-71.26 38.51,0 58.04,33.9 58.04,71.26l0 151.72 70.11 0 0.01 0 0 0zm478.7 -244.23c-16.1,-28.16 -52.3,-45.98 -90.23,-45.98 -82.75,-0.58 -147.69,50.57 -147.69,148.26 0,99.42 62.06,151.14 145.96,150.56 31.61,-0.58 75.85,-16.66 91.95,-49.99l3.45 41.37 66.09 0 0 -283.32 -67.23 0 -2.3 39.08 -0 0.01zm-83.9 16.67c110.33,0 110.33,171.82 0,171.82 -46.55,0 -83.9,-32.18 -83.9,-86.21 0,-54.02 37.36,-85.62 83.9,-85.62l0 0.01zm212.63 -55.75l0 283.32 70.11 0 0 -149.41c0,-52.3 33.9,-71.84 70.68,-71.84 22.99,0 36.2,6.32 50.57,18.38l31.61 -60.92c-15.52,-15.52 -43.68,-27 -72.99,-27 -28.74,0 -58.04,5.17 -79.88,40.23l-5.17 -32.75 -64.93 0 0 -0.01 0 -0zm295.95 -72.41l0 72.99 -52.86 0 0 60.34 52.86 0 0 122.4c0,70.68 40.23,105.74 101.71,103.45 21.27,-0.58 37.93,-4.03 58.04,-12.07l-19.54 -59.77c-10.34,5.17 -22.99,8.62 -33.9,8.62 -21.84,0 -36.78,-13.22 -36.78,-40.23l0 -122.4 78.73 0 0 -60.34 -78.16 0 0 -80.45 -70.11 7.48 0.01 -0.01 0 -0zm357.45 294.8c-47.7,0 -80.45,-36.2 -80.45,-80.45 0,-44.24 29.89,-80.45 80.45,-80.45 50.57,0 80.45,36.2 80.45,80.45 0,44.24 -32.75,80.45 -80.45,80.45zm-86.78 179.3l0 -151.72c20.11,31.03 64.37,40.23 94.25,40.23 90.8,0 143.1,-65.51 143.1,-148.27 0,-83.33 -58.04,-148.26 -145.39,-148.26 -32.18,0 -70.11,13.79 -91.95,45.4l-4.6 -39.08 -65.51 0 0 401.7 70.11 0 0.01 -0.01 -0.01 0.01zm422.39 -407.44c-90.23,0 -146.55,66.66 -146.55,147.69 0,81.61 55.17,147.69 147.12,147.69 91.95,0 147.69,-66.09 147.69,-147.69 0,-81.03 -58.04,-147.69 -148.26,-147.69zm0.58 63.79c47.13,0 77,41.37 77,83.89 0,43.1 -25.86,83.33 -77,83.33 -51.15,0 -77.01,-40.23 -77.01,-83.33 0,-42.52 26.44,-83.89 77.01,-83.89zm266.07 -59.19l0 284.46 -70.11 0 0 -284.46 70.11 0zm-76.43 -78.73c0,54.6 82.75,54.6 82.75,0 0,-54.6 -82.75,-54.6 -82.75,0zm418.36 363.19l0 -148.84c0,-89.07 -53.44,-139.07 -120.11,-139.07 -35.62,0 -64.37,14.37 -93.09,42.52l-4.6 -38.51 -62.64 0 0 283.89 69.54 0 0 -144.82c0,-43.1 29.31,-79.31 72.41,-79.31 44.82,0 68.39,32.75 68.39,75.85l0 148.26 70.11 0 0 0.01 -0.01 0zm77 -355.72l0 72.99 -52.86 0 0 60.34 52.86 0 0 122.4c0,70.68 40.23,105.74 101.71,103.45 21.27,-0.58 37.93,-4.03 58.04,-12.07l-19.54 -59.77c-10.34,5.17 -22.99,8.62 -33.9,8.62 -21.84,0 -36.78,-13.22 -36.78,-40.23l0 -122.4 78.73 0 0 -60.34 -78.16 0 0 -80.45 -70.11 7.48 0.01 -0.01 0 -0z"/>
  <polygon class="fil1 str0" points="98.96,4.49 233.68,204 97.85,405.03 5.82,405.03 150.61,202.89 10.31,3.08 "/>
 </g>
</svg>
