<?xml version="1.0" encoding="UTF-8"?>
<!DOCTYPE svg PUBLIC "-//W3C//DTD SVG 1.1//EN" "http://www.w3.org/Graphics/SVG/1.1/DTD/svg11.dtd">
<!-- Creator: CorelDRAW 2019 (64-Bit) -->
<svg xmlns="http://www.w3.org/2000/svg" xml:space="preserve" width="3.88026in" height="0.482504in" version="1.1" style="shape-rendering:geometricPrecision; text-rendering:geometricPrecision; image-rendering:optimizeQuality; fill-rule:evenodd; clip-rule:evenodd"
viewBox="0 0 4150.2 516.07"
 xmlns:xlink="http://www.w3.org/1999/xlink">
 <defs>
  <style type="text/css">
   <![CDATA[
    .str0 {stroke:#ED3237;stroke-width:7.42;stroke-miterlimit:2.61313}
    .fil1 {fill:#ED3237}
    .fil0 {fill:#4B4B4D;fill-rule:nonzero}
   ]]>
  </style>
 </defs>
 <g id="Layer_x0020_1">
  <metadata id="CorelCorpID_0Corel-Layer"/>
  <polygon class="fil0" points="247.33,191.86 122.54,5.52 19.15,5.52 19.15,9.8 187.42,252.58 14.14,502.5 14.14,505.35 119.67,505.35 247.31,317.59 374.95,505.35 480.48,505.35 480.48,502.5 306.49,252.58 475.47,9.8 475.47,5.52 372.08,5.52 247.29,191.86 247.31,191.86 247.32,191.86 "/>
  <polygon class="fil1 str0" points="122.79,8.37 289.95,255.92 121.41,505.35 7.22,505.35 186.88,254.54 12.79,6.62 "/>
  <path class="fil0" d="M850.14 505.29l0 -189.68c0,-46.7 29.46,-87.65 76.88,-87.65 47.42,0 66.82,39.52 66.82,86.22l0 191.12 87.66 0 0 -191.12c0,-106.34 -49.57,-168.13 -150.16,-168.13 -45.99,0 -86.94,14.37 -118.55,64.67 -20.12,-48.86 -62.51,-66.1 -104.9,-66.1 -33.77,0 -74.72,12.93 -93.4,48.85l-6.47 -43.11 -81.19 0 0 354.94 87.66 0 0 -189.68c0,-46.7 28.02,-89.09 75.44,-89.09 48.14,0 72.57,42.39 72.57,89.09l0 189.68 87.66 0zm598.51 -305.36c-20.12,-35.21 -65.38,-57.48 -112.8,-57.48 -103.47,-0.72 -184.66,63.23 -184.66,185.37 0,124.3 77.6,188.96 182.5,188.24 39.52,-0.72 94.84,-20.84 114.96,-62.51l4.31 51.73 82.63 0 0 -354.22 -84.06 0 -2.88 48.86zm-104.9 20.84c137.95,0 137.95,214.83 0,214.83 -58.19,0 -104.9,-40.24 -104.9,-107.77 0,-67.54 46.7,-107.06 104.9,-107.06zm265.85 -69.69l0 354.22 87.66 0 0 -186.81c0,-65.38 42.39,-89.81 88.37,-89.81 28.74,0 45.27,7.9 63.23,22.99l39.52 -76.16c-19.4,-19.4 -54.61,-33.77 -91.25,-33.77 -35.92,0 -72.57,6.47 -99.87,50.29l-6.47 -40.96 -81.19 0zm370.03 -90.53l0 91.25 -66.1 0 0 75.44 66.1 0 0 153.04c0,88.37 50.29,132.2 127.17,129.33 26.58,-0.72 47.42,-5.03 72.57,-15.09l-24.43 -74.73c-12.94,6.47 -28.74,10.78 -42.39,10.78 -27.3,0 -45.98,-16.53 -45.98,-50.29l0 -153.04 98.43 0 0 -75.44 -97.72 0 0 -100.59 -87.65 9.34zm495.76 342.01c-21.56,21.56 -49.57,29.46 -77.6,29.46 -54.6,0 -100.59,-35.92 -100.59,-103.46 0,-61.79 43.11,-104.9 102.03,-104.9 24.43,0 50.29,9.34 71.13,28.02l55.32 -58.2c-38.8,-38.08 -77.6,-52.45 -127.89,-52.45 -102.74,0 -188.24,61.79 -188.24,187.53 0,125.73 85.5,187.52 188.24,187.52 52.45,0 95.56,-15.8 136.52,-56.04l-58.92 -57.48zm97.72 -251.47l0 354.22 87.66 0 0 -186.81c0,-65.38 42.39,-89.81 88.37,-89.81 28.74,0 45.27,7.9 63.23,22.99l39.52 -76.16c-19.4,-19.4 -54.61,-33.77 -91.25,-33.77 -35.92,0 -72.57,6.47 -99.87,50.29l-6.47 -40.96 -81.19 0zm663.17 208.37c13.65,-145.86 -60.35,-219.14 -178.9,-219.14 -114.96,0 -188.25,77.6 -188.25,185.37 0,113.52 72.57,188.96 194.71,188.96 53.89,0 114.96,-18.68 152.33,-57.48l-56.04 -55.32c-20.12,20.84 -62.51,33.05 -94.84,33.05 -61.79,0 -99.87,-31.61 -105.62,-75.44l276.62 0zm-275.18 -72.57c12.93,-45.98 51.73,-68.97 99.15,-68.97 50.29,0 86.22,22.99 91.97,68.97l-191.12 0zm514.44 -62.51c55.33,0 102.75,41.68 102.75,103.47 0,63.95 -47.42,104.18 -102.75,104.18 -56.04,0 -100.59,-42.39 -100.59,-104.18 0,-63.95 44.55,-103.47 100.59,-103.47zm108.49 -221.3l0 196.15c-20.84,-36.64 -79.03,-56.76 -116.4,-56.76 -103.46,0 -180.34,63.23 -180.34,185.37 0,116.4 78.31,185.37 182.5,185.37 43.11,0 86.94,-14.37 114.24,-56.76l5.75 48.86 81.91 0 0 -502.23 -87.66 0zm251.47 146.57l0 355.66 -87.66 0 0 -355.66 87.66 0zm-95.56 -98.43c0,68.26 103.47,68.26 103.47,0 0,-68.26 -103.47,-68.26 -103.47,0zm210.52 9.34l0 91.25 -66.1 0 0 75.44 66.1 0 0 153.04c0,88.37 50.29,132.2 127.17,129.33 26.58,-0.72 47.42,-5.03 72.57,-15.09l-24.43 -74.73c-12.94,6.47 -28.74,10.78 -42.39,10.78 -27.3,0 -45.98,-16.53 -45.98,-50.29l0 -153.04 98.43 0 0 -75.44 -97.72 0 0 -100.59 -87.65 9.34z"/>
 </g>
</svg>
